<?xml version="1.0" encoding="UTF-8"?>
<svg xmlns="http://www.w3.org/2000/svg" xmlns:xlink="http://www.w3.org/1999/xlink" width="150px" height="150px" viewBox="0 0 150 150" version="1.1">
<g id="surface1">
<path style=" stroke:none;fill-rule:nonzero;fill:rgb(0%,0%,0%);fill-opacity:1;" d="M 71.605469 135.855469 L 71.605469 131.675781 L 73.234375 131.675781 L 73.277344 133.363281 L 73.320312 135.035156 L 75.007812 135.078125 L 76.679688 135.125 L 76.679688 131.675781 L 78.320312 131.675781 L 78.320312 140.03125 L 76.679688 140.03125 L 76.679688 136.480469 L 75.125 136.378906 C 74.261719 136.316406 73.484375 136.316406 73.410156 136.378906 C 73.304688 136.4375 73.246094 137.167969 73.246094 138.257812 L 73.246094 140.03125 L 71.605469 140.03125 Z M 66.859375 139.660156 C 65.265625 139.316406 64.097656 138.4375 63.578125 137.199219 C 63.265625 136.449219 63.398438 134.363281 63.800781 133.4375 C 64.261719 132.425781 65.207031 131.574219 66.203125 131.289062 C 67.203125 130.988281 68.84375 131.066406 69.785156 131.453125 C 70.425781 131.722656 70.425781 131.722656 70.339844 132.332031 C 70.277344 132.660156 70.203125 132.976562 70.175781 133.003906 C 70.144531 133.035156 69.769531 132.917969 69.335938 132.722656 C 67.160156 131.78125 65.1875 133.140625 65.1875 135.585938 C 65.1875 137.453125 66.265625 138.453125 68.277344 138.464844 L 69.367188 138.464844 L 69.367188 139.078125 C 69.367188 139.511719 69.292969 139.734375 69.128906 139.792969 C 68.769531 139.929688 67.890625 139.882812 66.859375 139.660156 Z M 81.15625 139.628906 C 81.15625 139.554688 80.960938 137.703125 80.722656 135.484375 C 80.484375 133.273438 80.304688 131.453125 80.304688 131.4375 C 80.320312 131.421875 80.707031 131.378906 81.167969 131.335938 L 81.992188 131.230469 L 82.410156 135.332031 C 82.632812 137.570312 82.78125 139.496094 82.722656 139.570312 C 82.617188 139.75 81.15625 139.792969 81.15625 139.628906 Z M 85.554688 139.109375 C 85.421875 138.707031 83.828125 131.183594 83.886719 131.140625 C 83.898438 131.109375 84.363281 130.988281 84.886719 130.871094 C 85.691406 130.679688 85.882812 130.679688 86.003906 130.84375 C 86.898438 132.035156 90.195312 135.957031 90.226562 135.871094 C 90.242188 135.8125 89.988281 134.511719 89.660156 132.976562 C 89.332031 131.4375 89.0625 130.125 89.0625 130.050781 C 89.0625 129.839844 90.570312 129.589844 90.628906 129.796875 C 90.765625 130.199219 92.359375 137.824219 92.316406 137.867188 C 92.242188 137.929688 90.71875 138.242188 90.496094 138.242188 C 90.375 138.242188 89.332031 137.0625 88.152344 135.628906 C 86.988281 134.199219 86.003906 133.050781 85.960938 133.082031 C 85.929688 133.109375 86.183594 134.40625 86.511719 135.957031 C 86.855469 137.496094 87.125 138.808594 87.125 138.871094 C 87.125 138.972656 86.152344 139.285156 85.808594 139.285156 C 85.707031 139.285156 85.585938 139.199219 85.554688 139.109375 Z M 129.648438 138.882812 C 128.691406 138.542969 127.527344 137.316406 127.1875 136.316406 C 126.84375 135.289062 126.933594 133.648438 127.378906 132.796875 C 127.753906 132.050781 128.871094 130.988281 129.617188 130.660156 C 129.945312 130.527344 130.617188 130.421875 131.289062 130.421875 C 132.230469 130.410156 132.542969 130.484375 133.257812 130.824219 C 134.210938 131.304688 134.914062 132.019531 135.378906 133.003906 C 135.765625 133.855469 135.792969 135.648438 135.4375 136.480469 C 135.109375 137.226562 134.046875 138.347656 133.304688 138.734375 C 132.496094 139.152344 130.585938 139.226562 129.648438 138.882812 Z M 132.871094 138.03125 C 133.8125 137.601562 134.511719 136.765625 134.828125 135.707031 C 135.71875 132.632812 132.167969 129.945312 129.453125 131.675781 C 128.289062 132.40625 127.707031 133.46875 127.707031 134.839844 C 127.707031 135.765625 128.023438 136.527344 128.722656 137.257812 C 129.839844 138.421875 131.410156 138.71875 132.871094 138.03125 Z M 132.871094 138.03125 "/>
<path style=" stroke:none;fill-rule:nonzero;fill:rgb(0%,0%,0%);fill-opacity:1;" d="M 129.5 134.734375 L 129.5 132.273438 L 130.738281 132.289062 C 131.410156 132.289062 132.199219 132.363281 132.484375 132.46875 C 133.390625 132.78125 133.675781 133.929688 133.003906 134.601562 L 132.632812 134.972656 L 132.929688 135.289062 C 133.125 135.496094 133.226562 135.824219 133.226562 136.167969 C 133.226562 136.480469 133.273438 136.824219 133.320312 136.960938 C 133.390625 137.152344 133.304688 137.199219 132.871094 137.199219 C 132.347656 137.199219 132.332031 137.183594 132.332031 136.613281 C 132.332031 135.855469 131.976562 135.4375 131.183594 135.320312 L 130.542969 135.214844 L 130.542969 137.199219 L 129.5 137.199219 Z M 132.15625 134.332031 C 132.4375 134.09375 132.363281 133.511719 132.003906 133.257812 C 131.828125 133.125 131.421875 133.019531 131.109375 133.019531 L 130.542969 133.019531 L 130.542969 134.691406 L 131.257812 134.585938 C 131.648438 134.527344 132.050781 134.40625 132.15625 134.332031 Z M 95 136.613281 C 94.402344 135.050781 92.347656 129.289062 92.347656 129.171875 C 92.347656 129.082031 92.734375 128.886719 93.210938 128.722656 C 93.671875 128.558594 94.71875 128.1875 95.507812 127.902344 L 96.957031 127.363281 L 97.164062 128.007812 L 97.390625 128.648438 L 96.613281 128.914062 C 96.195312 129.066406 95.507812 129.320312 95.078125 129.46875 L 94.300781 129.753906 L 94.613281 130.601562 C 94.777344 131.066406 94.957031 131.5 95.015625 131.558594 C 95.058594 131.617188 95.671875 131.46875 96.359375 131.214844 C 97.0625 130.976562 97.703125 130.796875 97.789062 130.84375 C 97.882812 130.871094 98.03125 131.140625 98.121094 131.421875 L 98.285156 131.945312 L 96.910156 132.425781 C 96.167969 132.691406 95.539062 132.929688 95.507812 132.945312 C 95.433594 133.019531 96.269531 135.109375 96.375 135.109375 C 96.433594 135.109375 97.132812 134.871094 97.925781 134.585938 L 99.371094 134.066406 L 99.597656 134.585938 C 99.699219 134.871094 99.804688 135.15625 99.804688 135.214844 C 99.804688 135.273438 98.761719 135.707031 97.480469 136.167969 L 95.164062 137.019531 Z M 53.074219 136.183594 C 52.671875 136.050781 52.355469 135.886719 52.355469 135.8125 C 52.355469 135.734375 52.625 134.914062 52.96875 134.003906 C 53.3125 133.09375 53.832031 131.632812 54.148438 130.765625 L 54.730469 129.171875 L 53.609375 128.769531 C 53 128.542969 52.507812 128.320312 52.507812 128.277344 C 52.507812 128.007812 52.894531 127.199219 53.03125 127.199219 C 53.105469 127.199219 54.492188 127.679688 56.101562 128.277344 L 59.042969 129.335938 L 58.820312 129.976562 L 58.609375 130.617188 L 57.640625 130.246094 C 57.117188 130.050781 56.59375 129.886719 56.476562 129.886719 C 56.355469 129.886719 55.835938 131.109375 55.117188 133.0625 C 54.492188 134.796875 53.925781 136.273438 53.863281 136.316406 C 53.820312 136.363281 53.460938 136.304688 53.074219 136.183594 Z M 45.96875 133.082031 L 43.851562 131.960938 L 45.734375 128.277344 C 46.777344 126.246094 47.640625 124.574219 47.65625 124.542969 C 47.703125 124.5 51.910156 126.574219 52.046875 126.695312 C 52.164062 126.796875 51.625 127.796875 51.460938 127.796875 C 51.371094 127.796875 50.703125 127.5 49.972656 127.128906 C 49.238281 126.753906 48.613281 126.453125 48.582031 126.453125 C 48.492188 126.453125 47.671875 128.246094 47.746094 128.304688 C 47.777344 128.335938 48.359375 128.632812 49.046875 128.976562 C 49.714844 129.320312 50.269531 129.632812 50.269531 129.675781 C 50.269531 129.753906 49.820312 130.648438 49.746094 130.753906 C 49.714844 130.78125 49.105469 130.496094 48.371094 130.125 L 47.046875 129.46875 L 46.566406 130.421875 C 46.300781 130.945312 46.089844 131.4375 46.089844 131.511719 C 46.089844 131.574219 46.71875 131.960938 47.492188 132.363281 L 48.894531 133.09375 L 48.613281 133.648438 C 48.449219 133.960938 48.269531 134.210938 48.207031 134.210938 C 48.148438 134.210938 47.148438 133.707031 45.96875 133.082031 Z M 101.863281 133.410156 C 101.628906 132.753906 101.628906 132.722656 101.878906 132.722656 C 102.429688 132.722656 103.65625 132.261719 104.03125 131.914062 C 104.492188 131.480469 104.566406 130.78125 104.195312 130.421875 C 104.011719 130.230469 103.609375 130.1875 102.371094 130.1875 C 100.566406 130.1875 100.046875 129.992188 99.507812 129.109375 C 98.449219 127.378906 99.476562 125.648438 102.015625 124.902344 C 102.789062 124.679688 102.804688 124.679688 102.921875 125.007812 C 103.296875 125.992188 103.296875 125.960938 102.492188 126.15625 C 101.464844 126.394531 100.851562 126.933594 100.851562 127.558594 C 100.851562 128.410156 101.238281 128.605469 102.671875 128.5 C 104.6875 128.335938 105.683594 128.828125 106.074219 130.140625 C 106.328125 130.988281 106.148438 131.738281 105.519531 132.425781 C 104.96875 133.050781 103.507812 133.839844 102.640625 133.988281 C 102.132812 134.078125 102.101562 134.066406 101.863281 133.410156 Z M 40.527344 130.109375 C 40.226562 129.902344 39.972656 129.675781 39.972656 129.632812 C 39.972656 129.589844 40.824219 128.363281 41.851562 126.933594 C 42.882812 125.5 43.703125 124.304688 43.671875 124.277344 C 43.644531 124.246094 42.375 125.125 40.855469 126.230469 C 39.347656 127.335938 38.078125 128.246094 38.019531 128.246094 C 37.855469 128.246094 36.691406 127.320312 36.75 127.230469 C 36.882812 126.976562 38.808594 120.769531 38.765625 120.710938 C 38.734375 120.679688 37.839844 121.859375 36.78125 123.320312 L 34.855469 125.992188 L 34.214844 125.527344 C 33.8125 125.246094 33.601562 125.007812 33.675781 124.890625 C 34.289062 123.859375 38.453125 118.277344 38.570312 118.320312 C 38.675781 118.351562 39.183594 118.695312 39.71875 119.070312 L 40.691406 119.769531 L 39.660156 122.84375 C 39.09375 124.53125 38.660156 125.933594 38.691406 125.976562 C 38.734375 126.007812 39.421875 125.546875 40.226562 124.933594 C 41.03125 124.320312 42.195312 123.453125 42.824219 122.992188 L 43.972656 122.160156 L 44.984375 122.902344 C 45.554688 123.320312 46.015625 123.722656 46 123.828125 C 45.988281 124.039062 41.316406 130.484375 41.183594 130.484375 C 41.136719 130.484375 40.835938 130.320312 40.527344 130.109375 Z M 106.894531 127.109375 C 105.671875 125.246094 104.640625 123.679688 104.609375 123.605469 C 104.566406 123.5 108.59375 120.710938 108.667969 120.816406 C 109.234375 121.589844 109.371094 121.875 109.25 121.964844 C 107.3125 123.21875 106.683594 123.679688 106.773438 123.828125 C 106.863281 123.976562 107.714844 125.261719 107.804688 125.382812 C 107.820312 125.410156 108.386719 125.066406 109.070312 124.605469 L 110.3125 123.78125 L 110.652344 124.246094 C 110.847656 124.515625 110.996094 124.769531 110.996094 124.828125 C 110.996094 124.871094 110.457031 125.277344 109.800781 125.710938 C 109.132812 126.140625 108.625 126.542969 108.640625 126.605469 C 108.667969 126.664062 108.953125 127.109375 109.28125 127.601562 L 109.863281 128.515625 L 111.175781 127.632812 C 111.894531 127.15625 112.53125 126.753906 112.59375 126.753906 C 112.652344 126.753906 112.859375 126.976562 113.042969 127.261719 L 113.371094 127.765625 L 111.324219 129.125 C 110.191406 129.871094 109.234375 130.484375 109.207031 130.484375 C 109.164062 130.484375 108.132812 128.960938 106.894531 127.109375 Z M 31.183594 122.816406 L 30.558594 122.171875 L 31.230469 120.636719 C 31.601562 119.800781 31.914062 119.023438 31.914062 118.90625 C 31.914062 118.800781 31.738281 118.503906 31.515625 118.25 L 31.125 117.769531 L 28.632812 120.261719 L 27.441406 119.070312 L 30.425781 116.082031 L 33.40625 113.101562 L 34.527344 114.21875 C 36.003906 115.667969 36.542969 116.488281 36.542969 117.234375 C 36.542969 118.695312 35.210938 119.695312 33.886719 119.246094 L 33.320312 119.054688 L 33.378906 119.441406 C 33.421875 119.785156 32.230469 123.007812 31.929688 123.351562 C 31.871094 123.425781 31.542969 123.171875 31.183594 122.816406 Z M 34.632812 117.488281 C 35.003906 116.996094 34.882812 116.53125 34.199219 115.800781 L 33.660156 115.234375 L 32.855469 116.039062 L 32.050781 116.832031 L 32.675781 117.398438 C 33.453125 118.085938 34.167969 118.128906 34.632812 117.488281 Z M 116.441406 119.726562 L 113.488281 116.726562 L 116.816406 113.398438 L 117.292969 113.890625 L 117.785156 114.367188 L 116.742188 115.414062 L 115.710938 116.457031 L 116.367188 117.160156 C 116.742188 117.546875 117.054688 117.90625 117.085938 117.933594 C 117.097656 117.980469 117.589844 117.546875 118.15625 116.980469 L 119.203125 115.949219 L 119.652344 116.382812 L 120.097656 116.816406 L 119.128906 117.800781 C 118.589844 118.339844 118.15625 118.84375 118.15625 118.917969 C 118.15625 118.996094 118.710938 119.621094 119.382812 120.292969 L 120.621094 121.53125 L 120.007812 122.128906 L 119.410156 122.738281 Z M 121.917969 116.082031 C 120.84375 115.578125 119.605469 114.382812 119.203125 113.429688 C 118.605469 112.058594 118.980469 110.488281 120.21875 109.117188 C 121.800781 107.371094 124.203125 107.398438 126.171875 109.191406 C 128.066406 110.9375 128.230469 113.054688 126.589844 115.054688 C 125.46875 116.414062 123.546875 116.84375 121.917969 116.082031 Z M 125.1875 114.472656 C 127.050781 113.234375 126.082031 110.445312 123.472656 109.59375 C 122.21875 109.191406 120.886719 109.863281 120.546875 111.070312 C 119.949219 113.234375 123.320312 115.726562 125.1875 114.472656 Z M 24.722656 115.5625 C 23.632812 114.980469 22.515625 113.207031 22.515625 112.039062 C 22.515625 110.847656 22.933594 110.339844 25.542969 108.371094 C 26.828125 107.398438 27.976562 106.566406 28.082031 106.535156 C 28.167969 106.503906 28.46875 106.761719 28.738281 107.117188 L 29.199219 107.757812 L 27.320312 109.164062 C 24.875 110.980469 24.351562 111.445312 24.15625 112.039062 C 23.875 112.90625 24.515625 113.980469 25.425781 114.160156 C 26.140625 114.296875 26.8125 113.9375 29.082031 112.203125 C 30.214844 111.339844 31.214844 110.640625 31.289062 110.640625 C 31.421875 110.640625 32.214844 111.683594 32.214844 111.875 C 32.214844 112.027344 27.453125 115.5625 27.039062 115.726562 C 26.441406 115.949219 25.320312 115.859375 24.722656 115.5625 Z M 78.542969 115.308594 C 77.648438 115.175781 76.304688 114.789062 75.738281 114.488281 C 74.066406 113.636719 72.84375 111.742188 72.992188 110.25 C 73.113281 109.058594 73.738281 108.085938 75.605469 106.148438 C 78.4375 103.222656 78.78125 102.59375 78.796875 100.433594 C 78.796875 98.703125 78.4375 97.777344 77.246094 96.523438 C 75.945312 95.152344 74.382812 94.566406 72.441406 94.71875 C 70.710938 94.851562 69.875 95.179688 68.996094 96.074219 C 67.90625 97.164062 67.53125 98.195312 67.609375 99.894531 C 67.667969 101.058594 67.742188 101.3125 68.515625 102.984375 C 69.53125 105.207031 69.859375 106.355469 69.859375 107.726562 C 69.859375 109.472656 69.203125 110.578125 67.679688 111.398438 C 66.785156 111.894531 66.710938 111.90625 65.113281 111.894531 C 63.667969 111.894531 63.296875 111.832031 61.996094 111.398438 C 59.042969 110.414062 57.816406 109.667969 54.429688 106.820312 C 51.925781 104.699219 50.136719 102.476562 48.835938 99.894531 C 47.464844 97.164062 46.539062 92.136719 46.761719 88.703125 C 46.882812 86.914062 47.386719 84.792969 48.402344 81.839844 C 49.359375 79.097656 51.101562 75.558594 51.359375 75.871094 C 51.386719 75.917969 51.804688 76.589844 52.28125 77.363281 C 53.609375 79.515625 54.910156 81.125 57.042969 83.273438 C 60.25 86.480469 61.5625 87.542969 63.625 88.554688 C 65.785156 89.628906 67.414062 90.0625 69.546875 90.167969 C 71.546875 90.257812 71.816406 90.183594 75.472656 88.675781 C 78.542969 87.421875 81.5 85.960938 83.003906 84.945312 C 88.941406 80.945312 91.75 77.992188 93.929688 73.410156 C 95.253906 70.621094 95.910156 67.695312 95.71875 65.503906 C 95.539062 63.472656 93.988281 57.566406 93.601562 57.414062 C 93.496094 57.386719 93.195312 57.507812 92.941406 57.683594 C 92.269531 58.191406 90.75 58.25 89.464844 57.835938 C 85.738281 56.582031 81.453125 51.863281 81.453125 48.96875 C 81.453125 47.941406 82.347656 46.316406 83.558594 45.136719 C 84.75 43.972656 85.839844 43.300781 87.464844 42.703125 C 89.09375 42.109375 90.914062 42.0625 92.269531 42.582031 C 93.539062 43.074219 94.882812 44.089844 95.523438 45.015625 C 96.433594 46.328125 96.703125 47.222656 96.792969 49.132812 C 96.867188 51.03125 96.703125 51.789062 95.613281 54.296875 C 95.285156 55.027344 95.03125 55.699219 95.03125 55.804688 C 95.03125 55.894531 95.40625 56.328125 95.867188 56.773438 C 96.332031 57.222656 97.121094 58.132812 97.625 58.789062 C 101.34375 63.535156 103.074219 67.621094 104.175781 74.304688 C 104.523438 76.292969 104.65625 77.617188 104.96875 81.8125 C 105.074219 83.066406 105.207031 83.183594 106.578125 83.183594 C 109.144531 83.183594 111.699219 81.558594 112.859375 79.1875 C 113.117188 78.675781 113.351562 78.273438 113.414062 78.261719 C 113.59375 78.261719 113.710938 81.40625 113.621094 83.378906 C 113.398438 87.359375 112.847656 90.195312 111.742188 92.851562 C 110.652344 95.492188 108.355469 98.628906 106.550781 99.941406 C 105.148438 100.984375 103.132812 101.820312 101.445312 102.058594 C 100.789062 102.164062 100.761719 102.179688 99.820312 103.671875 C 97.210938 107.789062 94.316406 110.5625 90.40625 112.695312 C 88.210938 113.890625 85.46875 114.832031 83.363281 115.097656 C 82.003906 115.28125 79.140625 115.398438 78.542969 115.308594 Z M 127.363281 107.890625 C 124.890625 106.863281 123.828125 105.160156 124.367188 103.058594 C 124.960938 100.746094 126.886719 99.371094 128.976562 99.761719 C 130.496094 100.046875 132.035156 101.136719 132.675781 102.359375 C 133.109375 103.191406 133.109375 104.65625 132.660156 105.609375 C 131.601562 107.953125 129.601562 108.804688 127.363281 107.890625 Z M 130.527344 106.207031 C 131.886719 105.179688 131.886719 103.433594 130.496094 102.371094 C 128.378906 100.761719 126.082031 101.207031 125.691406 103.328125 C 125.351562 105.28125 128.914062 107.398438 130.527344 106.207031 Z M 19.890625 107.683594 C 19.113281 107.3125 18.292969 106.460938 17.859375 105.582031 C 17.410156 104.667969 17.324219 103.238281 17.652344 102.371094 C 18.203125 100.925781 20.160156 99.613281 21.949219 99.476562 C 22.828125 99.417969 23.066406 99.460938 23.769531 99.804688 C 24.722656 100.269531 25.246094 100.835938 25.785156 101.984375 C 26.289062 103.058594 26.304688 104.460938 25.84375 105.34375 C 25.425781 106.132812 24.425781 107.042969 23.484375 107.503906 C 22.472656 107.996094 20.769531 108.085938 19.890625 107.683594 Z M 22.992188 105.746094 C 24.574219 104.851562 25.140625 103.519531 24.441406 102.296875 C 23.992188 101.476562 23.066406 101.015625 22.1875 101.164062 C 20.054688 101.507812 18.519531 103.148438 18.917969 104.609375 C 19.398438 106.3125 21.144531 106.789062 22.992188 105.746094 Z M 131.304688 98.539062 C 129.214844 97.808594 127.46875 97.179688 127.4375 97.132812 C 127.410156 97.105469 127.527344 96.628906 127.707031 96.0625 C 128.828125 92.675781 129.976562 91.464844 132.035156 91.480469 C 134.019531 91.507812 135.957031 92.734375 136.363281 94.226562 C 136.613281 95.164062 136.46875 96.597656 135.945312 98.105469 C 135.378906 99.730469 135.300781 99.894531 135.183594 99.882812 C 135.136719 99.882812 133.390625 99.285156 131.304688 98.539062 Z M 134.839844 97.226562 C 135.332031 95.613281 134.839844 94.300781 133.527344 93.628906 C 132.4375 93.089844 131.273438 93.152344 130.363281 93.792969 C 130.003906 94.046875 129.199219 95.464844 129.199219 95.835938 C 129.199219 95.925781 129.695312 96.167969 130.289062 96.375 C 130.871094 96.582031 132.003906 96.988281 132.78125 97.269531 C 133.554688 97.554688 134.304688 97.789062 134.4375 97.789062 C 134.585938 97.808594 134.734375 97.597656 134.839844 97.226562 Z M 15.054688 99.042969 C 14.144531 97.613281 13.667969 95.65625 13.921875 94.328125 C 14.144531 93.105469 15.308594 92 16.890625 91.507812 C 19.8125 90.601562 22.007812 92.136719 22.726562 95.613281 C 22.859375 96.238281 22.964844 96.777344 22.964844 96.824219 C 22.964844 96.894531 21.949219 97.210938 21.695312 97.210938 C 21.621094 97.210938 21.53125 96.882812 21.5 96.464844 C 21.457031 95.554688 21.128906 94.613281 20.652344 94 C 19.308594 92.226562 15.921875 93.015625 15.367188 95.222656 C 15.21875 95.761719 15.234375 96.046875 15.429688 96.671875 C 15.789062 97.894531 15.769531 97.882812 16.964844 97.507812 L 18.007812 97.179688 L 17.726562 96.34375 C 17.574219 95.898438 17.441406 95.507812 17.441406 95.480469 C 17.441406 95.40625 18.636719 95.078125 18.683594 95.136719 C 18.710938 95.164062 18.980469 95.882812 19.261719 96.71875 C 19.753906 98.074219 19.785156 98.238281 19.5625 98.328125 C 19.425781 98.386719 18.441406 98.714844 17.398438 99.074219 L 15.488281 99.730469 Z M 15.054688 99.042969 "/>
<path style=" stroke:none;fill-rule:nonzero;fill:rgb(0%,0%,0%);fill-opacity:1;" d="M 67.695312 87.183594 C 67.578125 87.078125 67.203125 86.617188 66.875 86.167969 C 66.054688 85.050781 65.785156 84.839844 64.875 84.601562 C 63.683594 84.289062 63.027344 83.378906 63.625 82.886719 C 63.816406 82.722656 64.160156 82.765625 65.535156 83.125 C 66.996094 83.5 67.488281 83.542969 69.558594 83.558594 C 71.007812 83.570312 71.960938 83.632812 72.066406 83.734375 C 72.15625 83.828125 72.203125 84.125 72.171875 84.394531 C 72.113281 85.0625 71.5625 85.316406 70.21875 85.332031 C 69.066406 85.347656 68.832031 85.542969 68.996094 86.316406 C 69.128906 86.914062 68.859375 87.359375 68.351562 87.359375 C 68.113281 87.359375 67.832031 87.273438 67.695312 87.183594 Z M 131.664062 82.363281 C 131.378906 81.917969 131.140625 81.5 131.140625 81.4375 C 131.152344 81.304688 132.675781 80.347656 132.886719 80.347656 C 132.945312 80.347656 133.257812 80.75 133.554688 81.230469 L 134.109375 82.109375 L 133.226562 82.648438 C 132.753906 82.945312 132.320312 83.183594 132.273438 83.183594 C 132.230469 83.183594 131.945312 82.8125 131.664062 82.363281 Z M 17.574219 82.617188 C 17.292969 82.390625 16.890625 82.109375 16.710938 81.976562 L 16.351562 81.753906 L 16.917969 80.902344 C 17.234375 80.441406 17.546875 80.050781 17.621094 80.050781 C 17.769531 80.050781 19.382812 81.109375 19.382812 81.199219 C 19.382812 81.273438 18.160156 83.050781 18.128906 83.019531 C 18.113281 83.019531 17.875 82.839844 17.574219 82.617188 Z M 77.976562 79.46875 C 77.140625 79.289062 76.738281 78.8125 75.828125 76.917969 C 75.378906 75.976562 74.648438 74.648438 74.199219 73.976562 C 72.949219 72.097656 72.742188 71.53125 72.742188 70.128906 C 72.753906 68.203125 73.589844 66.382812 74.785156 65.726562 C 76.007812 65.023438 77.933594 65.605469 79.679688 67.203125 C 81.214844 68.59375 82.585938 70.949219 82.75 72.472656 C 82.929688 74.1875 82.167969 76.589844 80.933594 78.289062 C 80.171875 79.332031 79.214844 79.707031 77.976562 79.46875 Z M 77.917969 73.917969 C 78.648438 73.589844 78.828125 72.636719 78.246094 72.066406 C 77.589844 71.398438 76.53125 71.738281 76.292969 72.664062 C 76.1875 73.113281 76.542969 73.738281 77.023438 73.933594 C 77.46875 74.113281 77.5 74.113281 77.917969 73.917969 Z M 58.371094 77.886719 C 57.609375 77.425781 56.625 75.976562 56.28125 74.828125 C 55.609375 72.53125 56.730469 68.679688 58.714844 66.5 C 59.652344 65.457031 60.535156 64.980469 61.472656 64.980469 C 62.308594 64.980469 62.710938 65.265625 63.160156 66.144531 C 63.59375 66.996094 64.292969 69.488281 64.292969 70.15625 C 64.292969 70.949219 63.816406 71.992188 62.609375 73.800781 C 61.980469 74.738281 61.25 75.976562 60.96875 76.542969 C 60.132812 78.230469 59.488281 78.574219 58.371094 77.886719 Z M 60.578125 73.050781 C 61.058594 72.574219 61.101562 72.351562 60.847656 71.785156 C 60.25 70.484375 58.222656 71.398438 58.757812 72.722656 C 59.101562 73.542969 59.9375 73.695312 60.578125 73.050781 Z M 127.902344 73.785156 C 126.097656 73.410156 124.933594 72.15625 124.351562 69.949219 C 124.097656 69.023438 124.039062 66.21875 124.246094 65.277344 L 124.367188 64.757812 L 126.082031 64.710938 L 127.8125 64.667969 L 127.515625 65.535156 C 127.128906 66.652344 127.097656 68.710938 127.46875 69.414062 C 127.828125 70.113281 128.335938 70.410156 129.019531 70.308594 C 129.828125 70.175781 130.304688 69.53125 130.691406 68.054688 C 131.410156 65.308594 132.183594 64.25 133.871094 63.726562 C 135.035156 63.371094 136.914062 63.441406 137.78125 63.890625 C 139.660156 64.875 140.75 67.578125 140.464844 70.5625 C 140.421875 71.160156 140.316406 71.726562 140.257812 71.816406 C 140.183594 71.933594 139.570312 72.039062 138.554688 72.097656 L 136.972656 72.1875 L 137.199219 71.46875 C 137.464844 70.574219 137.464844 68.964844 137.199219 68.21875 C 136.898438 67.398438 136.554688 67.070312 135.957031 67.070312 C 134.929688 67.070312 134.632812 67.457031 134.152344 69.457031 C 133.976562 70.15625 133.738281 70.976562 133.601562 71.292969 C 133.226562 72.203125 132.261719 73.140625 131.378906 73.46875 C 130.453125 73.8125 128.78125 73.964844 127.902344 73.785156 Z M 23.410156 72.351562 C 22.144531 72.171875 18.710938 71.710938 15.800781 71.304688 C 12.890625 70.917969 10.460938 70.5625 10.398438 70.515625 C 10.25 70.398438 10.964844 65.546875 11.28125 64.5625 C 11.996094 62.234375 13.726562 61.101562 16.1875 61.308594 C 18.847656 61.53125 20.410156 62.699219 20.964844 64.847656 C 21.1875 65.726562 21.171875 67.175781 20.933594 68.1875 C 20.859375 68.488281 20.992188 68.515625 23.546875 68.859375 L 26.246094 69.203125 L 26.246094 69.589844 C 26.246094 70.203125 25.917969 72.5 25.8125 72.605469 C 25.769531 72.648438 24.679688 72.53125 23.410156 72.351562 Z M 18.007812 67.011719 C 18.054688 65.875 17.859375 65.429688 17.175781 65.085938 C 16.144531 64.5625 14.863281 64.683594 14.324219 65.371094 C 14.054688 65.710938 13.609375 67.308594 13.742188 67.457031 C 13.832031 67.53125 17.621094 68.082031 17.816406 68.039062 C 17.90625 68.023438 17.980469 67.5625 18.007812 67.011719 Z M 20.261719 59.148438 C 16.785156 56.429688 13.878906 54.164062 13.816406 54.089844 C 13.742188 54.027344 14.011719 53.089844 14.414062 52.015625 L 15.128906 50.058594 L 15.875 50.058594 C 17.054688 50.058594 31.496094 50.792969 31.574219 50.851562 C 31.601562 50.878906 31.332031 51.671875 30.992188 52.609375 L 30.347656 54.3125 L 29.828125 54.3125 C 29.542969 54.296875 28.738281 54.265625 28.066406 54.238281 L 26.8125 54.164062 L 26.007812 56.3125 C 25.558594 57.488281 25.203125 58.535156 25.203125 58.625 C 25.203125 58.714844 25.785156 59.222656 26.484375 59.746094 C 27.183594 60.265625 27.78125 60.757812 27.8125 60.816406 C 27.886719 60.921875 26.875 63.757812 26.691406 63.980469 C 26.632812 64.039062 23.753906 61.863281 20.261719 59.148438 Z M 23.1875 55.386719 C 23.484375 54.582031 23.710938 53.894531 23.679688 53.863281 C 23.605469 53.789062 17.726562 53.164062 17.667969 53.222656 C 17.605469 53.28125 22.542969 56.910156 22.621094 56.863281 C 22.636719 56.863281 22.890625 56.191406 23.1875 55.386719 Z M 124.648438 61.503906 C 123.113281 60.90625 122.113281 59.683594 121.382812 57.519531 C 121.039062 56.460938 120.605469 53.984375 120.742188 53.851562 C 120.800781 53.789062 122.722656 53.253906 123.753906 53.011719 C 124.039062 52.9375 124.050781 53 123.992188 54.101562 C 123.933594 55.566406 124.351562 57.101562 125.023438 57.816406 C 125.425781 58.25 125.546875 58.296875 126.082031 58.222656 C 126.695312 58.144531 127.171875 57.835938 127.4375 57.324219 C 127.515625 57.179688 127.632812 56.148438 127.707031 55.042969 C 127.886719 52.058594 128.351562 51.238281 130.46875 50.253906 C 131.230469 49.894531 131.558594 49.835938 132.632812 49.835938 C 133.738281 49.835938 133.988281 49.878906 134.585938 50.238281 C 135.957031 51.042969 137.019531 52.671875 137.570312 54.804688 C 137.945312 56.253906 137.945312 57.179688 137.601562 57.28125 C 136.75 57.535156 135.078125 57.96875 134.945312 57.96875 C 134.855469 57.96875 134.78125 57.535156 134.765625 56.953125 C 134.722656 55.074219 133.78125 53.339844 132.8125 53.339844 C 131.664062 53.339844 131.4375 53.820312 131.289062 56.460938 C 131.230469 57.578125 131.109375 58.683594 131.007812 58.9375 C 130.527344 60.101562 129.484375 60.953125 127.960938 61.429688 C 126.976562 61.726562 125.335938 61.773438 124.648438 61.503906 Z M 49.835938 55.328125 C 48.121094 53.625 47.253906 52.355469 46.808594 50.910156 C 46.390625 49.507812 46.480469 46.867188 46.984375 45.507812 C 48.207031 42.285156 51.429688 40.226562 54.671875 40.601562 C 57.34375 40.898438 59.355469 42.210938 61.144531 44.820312 C 61.636719 45.554688 62.054688 46.195312 62.054688 46.226562 C 62.054688 46.269531 61.53125 46.628906 60.90625 47 C 57.671875 48.96875 55.027344 51.597656 52.433594 55.433594 C 51.953125 56.132812 51.523438 56.714844 51.449219 56.746094 C 51.371094 56.773438 50.65625 56.132812 49.835938 55.328125 Z M 118.621094 50.773438 C 118.128906 50.015625 116.996094 48.253906 116.101562 46.851562 C 115.191406 45.464844 114.472656 44.300781 114.488281 44.300781 C 114.652344 44.136719 127.601562 35.886719 127.679688 35.886719 C 127.796875 35.898438 132.558594 43.332031 132.558594 43.507812 C 132.558594 43.566406 132.140625 43.898438 131.648438 44.210938 C 130.003906 45.269531 130.332031 45.433594 128.605469 42.734375 C 127.140625 40.4375 127.066406 40.363281 126.753906 40.554688 C 126.589844 40.671875 125.976562 41.046875 125.425781 41.40625 C 124.753906 41.824219 124.441406 42.109375 124.484375 42.253906 C 124.53125 42.359375 125.171875 43.402344 125.902344 44.539062 L 127.246094 46.613281 L 126.84375 46.894531 C 126.617188 47.046875 126.050781 47.417969 125.589844 47.714844 L 124.738281 48.253906 L 123.382812 46.089844 C 122.621094 44.910156 121.949219 43.898438 121.875 43.851562 C 121.738281 43.777344 119.128906 45.34375 118.980469 45.597656 C 118.933594 45.660156 119.5625 46.730469 120.367188 48 C 121.171875 49.253906 121.875 50.359375 121.933594 50.464844 C 121.996094 50.566406 121.589844 50.910156 120.84375 51.386719 C 120.171875 51.804688 119.605469 52.148438 119.574219 52.148438 C 119.53125 52.148438 119.097656 51.523438 118.621094 50.773438 Z M 26.246094 45.046875 C 22.84375 42.449219 20.023438 40.316406 19.996094 40.273438 C 19.875 40.167969 22.53125 36.78125 22.726562 36.78125 C 22.933594 36.78125 32.902344 39.390625 33.332031 39.554688 C 34.035156 39.824219 33.125 39.078125 29.441406 36.332031 C 27.039062 34.527344 25.378906 33.199219 25.410156 33.09375 C 25.457031 32.992188 25.871094 32.410156 26.335938 31.78125 C 26.902344 31.035156 27.230469 30.707031 27.347656 30.796875 C 27.441406 30.871094 30.230469 32.992188 33.558594 35.511719 C 36.882812 38.035156 39.628906 40.121094 39.644531 40.152344 C 39.6875 40.179688 38.136719 42.285156 37.210938 43.449219 C 37.09375 43.597656 35.886719 43.332031 31.585938 42.242188 C 28.558594 41.464844 26.097656 40.882812 26.097656 40.941406 C 26.097656 41 27.859375 42.359375 30.007812 43.941406 C 32.152344 45.539062 34.019531 46.925781 34.140625 47.015625 C 34.332031 47.164062 34.246094 47.359375 33.496094 48.359375 C 33.003906 49.015625 32.574219 49.582031 32.527344 49.644531 C 32.480469 49.703125 29.648438 47.628906 26.246094 45.046875 Z M 112.308594 41.792969 L 111.011719 40.585938 L 111.980469 38.792969 C 113.757812 35.527344 113.890625 34.902344 112.980469 33.945312 L 112.414062 33.347656 L 110.324219 35.585938 C 109.175781 36.8125 108.191406 37.796875 108.148438 37.777344 C 108.085938 37.765625 107.503906 37.242188 106.847656 36.601562 L 105.652344 35.46875 L 110.578125 30.261719 C 113.28125 27.410156 115.726562 24.84375 115.996094 24.558594 L 116.488281 24.050781 L 119.007812 26.46875 C 121.996094 29.289062 122.410156 29.902344 122.394531 31.410156 C 122.394531 32.125 122.304688 32.542969 122.054688 33.035156 C 121.621094 33.871094 120.578125 34.871094 119.710938 35.304688 C 118.964844 35.660156 117.683594 35.75 117.171875 35.46875 C 116.890625 35.316406 116.863281 35.347656 116.863281 35.972656 C 116.863281 36.527344 116.59375 37.210938 115.308594 39.777344 C 114.460938 41.511719 113.726562 42.941406 113.683594 42.972656 C 113.636719 42.988281 113.023438 42.464844 112.308594 41.792969 Z M 117.726562 32.675781 C 118.261719 32.394531 118.753906 31.632812 118.753906 31.09375 C 118.753906 30.675781 118.175781 29.796875 117.425781 29.09375 L 116.964844 28.664062 L 115.90625 29.691406 C 114.429688 31.15625 114.414062 31.199219 115.117188 31.8125 C 116.398438 32.929688 116.90625 33.09375 117.726562 32.675781 Z M 36.945312 32.078125 C 34.421875 28.617188 32.363281 25.738281 32.363281 25.695312 C 32.363281 25.589844 36.484375 22.621094 37.421875 22.050781 C 39.480469 20.816406 41.78125 20.621094 43.597656 21.546875 C 45.523438 22.515625 47.734375 25.292969 48.566406 27.753906 C 49.3125 30.019531 48.835938 32.140625 47.121094 34.003906 C 46.417969 34.78125 45.300781 35.660156 42.285156 37.855469 L 41.523438 38.40625 Z M 43.152344 33.363281 C 44.136719 32.691406 45.003906 31.660156 45.195312 30.929688 C 45.597656 29.484375 44.882812 27.53125 43.390625 26.007812 C 41.867188 24.453125 40.375 24.144531 38.691406 24.992188 C 38.210938 25.246094 37.613281 25.605469 37.375 25.796875 L 36.945312 26.15625 L 39.6875 29.960938 C 41.195312 32.066406 42.449219 33.78125 42.480469 33.78125 C 42.507812 33.796875 42.808594 33.601562 43.152344 33.363281 Z M 97.835938 30.753906 C 97.121094 30.320312 96.496094 29.933594 96.449219 29.886719 C 96.359375 29.796875 103.847656 16.90625 104.207031 16.515625 C 104.339844 16.351562 104.804688 16.578125 106.597656 17.636719 C 109.175781 19.175781 110.234375 20.070312 110.785156 21.203125 C 111.144531 21.917969 111.175781 22.144531 111.117188 23.171875 C 111.054688 24.144531 110.96875 24.5 110.476562 25.410156 C 109.773438 26.753906 108.625 27.839844 107.550781 28.199219 C 106.328125 28.617188 105.132812 28.453125 103.550781 27.664062 C 102.851562 27.304688 102.222656 26.992188 102.179688 26.960938 C 102.121094 26.933594 101.464844 27.960938 100.714844 29.246094 C 99.957031 30.511719 99.296875 31.558594 99.238281 31.542969 C 99.179688 31.542969 98.550781 31.183594 97.835938 30.753906 Z M 106.667969 24.753906 C 107.207031 24.289062 107.714844 23.367188 107.714844 22.828125 C 107.714844 22.203125 107.296875 21.578125 106.566406 21.113281 C 106.191406 20.875 105.835938 20.710938 105.757812 20.738281 C 105.625 20.828125 103.683594 24.144531 103.683594 24.289062 C 103.683594 24.351562 104 24.558594 104.402344 24.753906 C 105.34375 25.261719 106.074219 25.246094 106.667969 24.753906 Z M 51.613281 30.839844 C 51.613281 30.78125 51.449219 27.484375 51.238281 23.5 C 51.03125 19.515625 50.867188 15.859375 50.867188 15.367188 L 50.867188 14.457031 L 52.820312 13.742188 C 53.894531 13.355469 54.835938 13.085938 54.894531 13.160156 C 55.371094 13.667969 64.742188 25.753906 64.773438 25.886719 C 64.800781 26.007812 64.117188 26.335938 63.101562 26.710938 L 61.386719 27.347656 L 60.445312 26.050781 C 59.921875 25.351562 59.445312 24.722656 59.386719 24.648438 C 59.324219 24.589844 58.25 24.917969 56.996094 25.394531 L 54.714844 26.230469 L 54.820312 27.976562 C 54.921875 29.585938 54.910156 29.738281 54.65625 29.84375 C 53.371094 30.347656 51.613281 30.929688 51.613281 30.839844 Z M 57.414062 22.050781 C 57.488281 22.007812 54.789062 17.996094 54.207031 17.292969 L 53.851562 16.859375 L 53.925781 17.308594 C 53.96875 17.5625 54.058594 18.636719 54.148438 19.695312 C 54.238281 20.769531 54.34375 21.976562 54.386719 22.398438 L 54.476562 23.15625 L 55.90625 22.636719 C 56.714844 22.335938 57.386719 22.082031 57.414062 22.050781 Z M 93.285156 28.574219 C 92.269531 28.273438 91.390625 27.976562 91.316406 27.902344 C 91.257812 27.8125 91.035156 26.546875 90.851562 25.066406 C 90.660156 23.589844 90.464844 22.261719 90.421875 22.113281 C 90.332031 21.886719 89.925781 22.308594 88.449219 24.113281 C 87.4375 25.351562 86.570312 26.441406 86.527344 26.5 C 86.464844 26.574219 85.585938 26.382812 84.542969 26.082031 L 82.632812 25.542969 L 83.050781 25.082031 C 84.199219 23.84375 87.707031 20.070312 88.285156 19.457031 L 88.941406 18.753906 L 88.167969 14.785156 C 87.75 12.605469 87.421875 10.757812 87.453125 10.699219 C 87.464844 10.625 88.332031 10.820312 89.363281 11.101562 L 91.226562 11.640625 L 91.539062 14.101562 C 91.71875 15.457031 91.882812 16.695312 91.914062 16.859375 C 91.957031 17.082031 92.359375 16.667969 93.660156 15.113281 C 94.585938 13.980469 95.40625 13.027344 95.480469 12.980469 C 95.644531 12.875 99.0625 13.800781 99.0625 13.9375 C 99.0625 13.980469 97.820312 15.355469 96.300781 16.996094 C 94.777344 18.621094 93.539062 20.054688 93.539062 20.1875 C 93.539062 20.304688 93.910156 22.308594 94.375 24.648438 C 94.824219 26.976562 95.179688 28.929688 95.152344 28.992188 C 95.121094 29.050781 94.285156 28.855469 93.285156 28.574219 Z M 75.378906 25.457031 C 73.648438 25.410156 72.1875 25.320312 72.125 25.273438 C 72.039062 25.171875 72.292969 13.457031 72.441406 10.996094 L 72.53125 9.625 L 76.273438 9.699219 C 78.347656 9.742188 80.394531 9.816406 80.828125 9.863281 L 81.617188 9.953125 L 81.527344 12.789062 L 78.664062 12.773438 L 75.78125 12.742188 L 75.78125 15.847656 L 76.695312 15.953125 C 77.199219 15.996094 78.410156 16.039062 79.378906 16.039062 L 81.15625 16.039062 L 81.15625 19.070312 L 78.4375 19.011719 L 75.707031 18.949219 L 75.664062 20.679688 L 75.617188 22.410156 L 77.441406 22.5 C 78.4375 22.5625 79.753906 22.605469 80.363281 22.605469 L 81.453125 22.605469 L 81.453125 25.589844 L 80.007812 25.558594 C 79.199219 25.542969 77.125 25.5 75.378906 25.457031 Z M 75.378906 25.457031 "/>
<path style=" stroke:none;fill-rule:nonzero;fill:rgb(80.784315%,7.058824%,23.529412%);fill-opacity:1;" d="M 70.410156 147.328125 C 60.742188 146.628906 51.582031 144.179688 43.03125 140.03125 C 30.511719 133.945312 19.515625 123.664062 12.371094 111.382812 C 5.625 99.792969 2.164062 86.332031 2.566406 73.261719 C 3.285156 50.417969 13.800781 30.15625 31.960938 16.652344 C 42.972656 8.460938 55.90625 3.65625 69.816406 2.597656 C 72.753906 2.371094 79.886719 2.507812 82.722656 2.835938 C 94.761719 4.222656 105.746094 8.175781 115.324219 14.59375 C 121.441406 18.683594 127.351562 24.144531 131.914062 29.914062 C 140.136719 40.332031 145.316406 52.566406 147.015625 65.652344 C 147.464844 69.007812 147.597656 71.875 147.507812 76.320312 C 147.433594 80.871094 147.238281 82.929688 146.570312 86.988281 C 142.40625 111.996094 125.246094 133.09375 101.445312 142.464844 C 95.179688 144.925781 88.511719 146.523438 81.601562 147.195312 C 79.394531 147.417969 72.636719 147.492188 70.410156 147.328125 Z M 82.496094 144.148438 C 101.984375 141.851562 119.007812 132.15625 130.707031 116.679688 C 143.347656 99.96875 147.71875 77.976562 142.464844 57.550781 C 136.988281 36.257812 121.203125 18.308594 100.925781 10.324219 C 85.421875 4.238281 68.5625 3.746094 53.03125 8.953125 C 33.558594 15.457031 17.800781 30.378906 10.386719 49.3125 C 5.996094 60.503906 4.535156 72.515625 6.117188 84.300781 C 8.132812 99.390625 15.113281 113.398438 26.050781 124.304688 C 37.75 135.988281 52.984375 142.957031 69.90625 144.34375 C 72.335938 144.554688 80.109375 144.417969 82.496094 144.148438 Z M 82.496094 144.148438 "/>
<path style=" stroke:none;fill-rule:nonzero;fill:rgb(80.784315%,7.058824%,23.529412%);fill-opacity:1;" d="M 71.234375 126.214844 C 70.996094 126.183594 70.054688 126.082031 69.144531 125.992188 C 56.132812 124.707031 43.496094 117.757812 35.09375 107.28125 C 30.542969 101.609375 27.675781 96.0625 25.4375 88.613281 C 25.351562 88.332031 25.425781 88.273438 26.035156 88.121094 C 26.425781 88.019531 26.738281 87.957031 26.753906 87.988281 C 26.78125 88.019531 27.039062 88.839844 27.347656 89.824219 C 29.75 97.449219 34.050781 104.535156 39.734375 110.265625 C 48.03125 118.605469 58.714844 123.589844 70.605469 124.679688 C 73.378906 124.933594 79.648438 124.785156 82.125 124.398438 C 90.898438 123.023438 98.34375 119.964844 105.101562 114.953125 C 113.535156 108.683594 119.980469 99.582031 122.949219 89.71875 C 123.308594 88.496094 123.5 88.109375 123.679688 88.109375 C 123.949219 88.109375 124.871094 88.40625 124.871094 88.480469 C 124.871094 88.75 123.367188 93.089844 122.796875 94.496094 C 115.503906 112.234375 98.878906 124.441406 79.660156 126.15625 C 78.097656 126.289062 72.292969 126.335938 71.234375 126.214844 Z M 71.234375 126.214844 "/>
<path style=" stroke:none;fill-rule:nonzero;fill:rgb(80.784315%,7.058824%,23.529412%);fill-opacity:1;" d="M 70.261719 120.128906 C 59.476562 118.859375 49.777344 114.101562 42.480469 106.476562 C 27.246094 90.585938 25.46875 66.414062 38.199219 48.535156 C 39.613281 46.554688 40.855469 45.089844 43.003906 42.910156 C 55.671875 30.066406 74.960938 26.035156 91.882812 32.707031 C 95.777344 34.246094 100.121094 36.75 103.535156 39.464844 C 105.460938 40.988281 109.058594 44.570312 110.578125 46.480469 C 115.652344 52.867188 118.875 60.238281 120.113281 68.265625 C 120.5 70.84375 120.664062 76.53125 120.414062 79.097656 C 119.828125 84.855469 118.484375 89.644531 116.011719 94.75 C 111.636719 103.773438 104.6875 110.863281 95.761719 115.414062 C 91.152344 117.757812 86.722656 119.160156 81.304688 119.980469 C 79.140625 120.308594 72.558594 120.382812 70.261719 120.128906 Z M 83.363281 115.097656 C 85.46875 114.832031 88.210938 113.890625 90.40625 112.695312 C 94.316406 110.5625 97.210938 107.789062 99.820312 103.671875 C 100.761719 102.179688 100.789062 102.164062 101.445312 102.058594 C 103.132812 101.820312 105.148438 100.984375 106.550781 99.941406 C 108.355469 98.628906 110.652344 95.492188 111.742188 92.851562 C 113.042969 89.71875 113.5625 86.601562 113.59375 81.992188 C 113.621094 75.214844 112.265625 70.382812 108.640625 64.398438 C 106.578125 60.96875 102.042969 55.894531 97.789062 52.222656 L 96.746094 51.328125 L 96.746094 49.460938 C 96.746094 47.300781 96.539062 46.539062 95.597656 45.136719 C 94.914062 44.089844 93.613281 43.105469 92.269531 42.601562 C 89.855469 41.660156 86.558594 42.523438 83.945312 44.746094 L 83.140625 45.417969 L 81.734375 44.925781 C 79.960938 44.285156 77.960938 43.851562 75.78125 43.628906 C 71.917969 43.238281 66.769531 44.105469 63.324219 45.71875 L 62.117188 46.285156 L 61.234375 44.941406 C 59.445312 42.285156 57.371094 40.898438 54.671875 40.601562 C 52.148438 40.300781 49.359375 41.613281 47.898438 43.777344 C 46.972656 45.148438 46.65625 46.152344 46.566406 48.136719 C 46.480469 50.222656 46.761719 51.386719 47.714844 52.867188 C 48.371094 53.878906 50.300781 55.953125 51.074219 56.476562 L 51.550781 56.820312 L 51.148438 57.578125 C 50.105469 59.503906 49.402344 62.476562 49.269531 65.441406 C 49.132812 68.800781 49.582031 71.53125 50.792969 74.515625 L 51.296875 75.769531 L 50.835938 76.4375 C 49.179688 78.839844 46.972656 85.496094 46.761719 88.703125 C 46.539062 92.136719 47.464844 97.164062 48.835938 99.894531 C 50.136719 102.476562 51.925781 104.699219 54.429688 106.820312 C 57.816406 109.667969 59.042969 110.414062 61.996094 111.398438 C 63.296875 111.832031 63.667969 111.894531 65.113281 111.894531 C 66.710938 111.90625 66.785156 111.894531 67.679688 111.398438 C 69.203125 110.578125 69.859375 109.472656 69.859375 107.726562 C 69.859375 106.355469 69.53125 105.207031 68.515625 102.984375 C 67.742188 101.3125 67.667969 101.058594 67.609375 99.894531 C 67.53125 98.195312 67.90625 97.164062 68.996094 96.074219 C 69.875 95.179688 70.710938 94.851562 72.441406 94.71875 C 74.382812 94.566406 75.945312 95.152344 77.246094 96.523438 C 78.4375 97.777344 78.796875 98.703125 78.796875 100.433594 C 78.78125 102.59375 78.4375 103.222656 75.605469 106.148438 C 73.738281 108.085938 73.113281 109.058594 72.992188 110.25 C 72.84375 111.742188 74.066406 113.636719 75.738281 114.488281 C 76.304688 114.789062 77.648438 115.175781 78.542969 115.308594 C 79.140625 115.398438 82.003906 115.28125 83.363281 115.097656 Z M 83.363281 115.097656 "/>
<path style=" stroke:none;fill-rule:nonzero;fill:rgb(100%,100%,100%);fill-opacity:1;" d="M 70.710938 149.867188 C 48.65625 148.492188 28.960938 138.0625 15.5625 120.695312 C 4.683594 106.578125 -0.910156 88.660156 0.121094 71.171875 C 0.925781 57.640625 4.761719 45.570312 11.816406 34.46875 C 18.023438 24.664062 27.394531 15.742188 37.660156 9.847656 C 44.226562 6.074219 52.296875 2.96875 59.445312 1.492188 C 65.101562 0.328125 68.335938 0.015625 74.738281 0 C 80.140625 0 81.753906 0.105469 85.839844 0.6875 C 105.476562 3.507812 122.902344 13.785156 134.898438 29.632812 C 143.0625 40.421875 148 52.671875 149.671875 66.335938 C 149.957031 68.738281 150 69.785156 150 74.753906 C 150 80.675781 149.894531 82.257812 149.179688 86.765625 C 145.914062 107.328125 134.242188 125.558594 116.890625 137.242188 C 113.144531 139.777344 107.640625 142.703125 103.3125 144.464844 C 93.089844 148.644531 81.570312 150.554688 70.710938 149.867188 Z M 81.601562 147.195312 C 88.511719 146.523438 95.179688 144.925781 101.445312 142.464844 C 125.246094 133.09375 142.40625 111.996094 146.570312 86.988281 C 147.238281 82.929688 147.433594 80.871094 147.507812 76.320312 C 147.597656 71.875 147.464844 69.007812 147.015625 65.652344 C 144.496094 46.238281 134.332031 28.871094 118.472656 16.800781 C 115.234375 14.324219 111.117188 11.847656 106.894531 9.773438 C 99.359375 6.101562 91.507812 3.847656 82.722656 2.835938 C 79.886719 2.507812 72.753906 2.371094 69.816406 2.597656 C 57.566406 3.535156 46.375 7.25 36.0625 13.816406 C 28.796875 18.441406 21.917969 24.84375 16.773438 31.78125 C 4.015625 48.925781 -0.492188 71.398438 4.625 92.285156 C 8.910156 109.800781 19.949219 125.425781 35.125 135.484375 C 45.496094 142.359375 57.519531 146.386719 70.410156 147.328125 C 72.636719 147.492188 79.394531 147.417969 81.601562 147.195312 Z M 81.601562 147.195312 "/>
<path style=" stroke:none;fill-rule:nonzero;fill:rgb(100%,100%,100%);fill-opacity:1;" d="M 69.90625 144.34375 C 52.984375 142.957031 37.75 135.988281 26.050781 124.304688 C 12.847656 111.132812 5.503906 93.570312 5.503906 75.140625 C 5.503906 52.105469 16.488281 30.992188 35.304688 17.859375 C 53.222656 5.355469 75.800781 2.042969 96.746094 8.832031 C 107.089844 12.175781 116.488281 17.949219 124.15625 25.648438 C 140.851562 42.390625 147.894531 65.710938 143.242188 88.824219 C 139.585938 106.925781 128.75 122.890625 113.207031 133.082031 C 103.847656 139.199219 93.851562 142.808594 82.496094 144.148438 C 80.109375 144.417969 72.335938 144.554688 69.90625 144.34375 Z M 73.246094 138.257812 C 73.246094 137.167969 73.304688 136.4375 73.410156 136.378906 C 73.484375 136.316406 74.261719 136.316406 75.125 136.378906 L 76.679688 136.480469 L 76.679688 140.03125 L 78.320312 140.03125 L 78.320312 131.675781 L 76.679688 131.675781 L 76.679688 135.125 L 75.007812 135.078125 L 73.320312 135.035156 L 73.277344 133.363281 L 73.234375 131.675781 L 71.605469 131.675781 L 71.605469 140.03125 L 73.246094 140.03125 Z M 69.128906 139.792969 C 69.292969 139.734375 69.367188 139.511719 69.367188 139.078125 L 69.367188 138.464844 L 68.277344 138.464844 C 66.265625 138.453125 65.1875 137.453125 65.1875 135.585938 C 65.1875 133.140625 67.160156 131.78125 69.335938 132.722656 C 69.769531 132.917969 70.144531 133.035156 70.175781 133.003906 C 70.203125 132.976562 70.277344 132.660156 70.339844 132.332031 C 70.425781 131.722656 70.425781 131.722656 69.785156 131.453125 C 69.425781 131.304688 68.667969 131.152344 68.082031 131.109375 C 65.265625 130.917969 63.578125 132.484375 63.429688 135.40625 C 63.339844 137.226562 63.847656 138.242188 65.265625 139.078125 C 66.234375 139.644531 68.457031 140.046875 69.128906 139.792969 Z M 82.722656 139.570312 C 82.78125 139.496094 82.632812 137.570312 82.410156 135.332031 L 81.992188 131.230469 L 81.167969 131.335938 C 80.707031 131.378906 80.320312 131.421875 80.304688 131.4375 C 80.304688 131.453125 80.484375 133.273438 80.722656 135.484375 C 80.960938 137.703125 81.15625 139.554688 81.15625 139.628906 C 81.15625 139.792969 82.617188 139.75 82.722656 139.570312 Z M 86.570312 139.121094 C 86.867188 139.046875 87.125 138.929688 87.125 138.871094 C 87.125 138.808594 86.855469 137.496094 86.511719 135.957031 C 86.183594 134.40625 85.929688 133.109375 85.960938 133.082031 C 86.003906 133.050781 86.988281 134.199219 88.152344 135.628906 C 89.332031 137.0625 90.375 138.242188 90.496094 138.242188 C 90.71875 138.242188 92.242188 137.929688 92.316406 137.867188 C 92.359375 137.824219 90.765625 130.199219 90.628906 129.796875 C 90.570312 129.589844 89.0625 129.839844 89.0625 130.050781 C 89.0625 130.125 89.332031 131.4375 89.660156 132.976562 C 89.988281 134.511719 90.242188 135.8125 90.226562 135.871094 C 90.195312 135.957031 86.898438 132.035156 86.003906 130.84375 C 85.882812 130.679688 85.691406 130.679688 84.886719 130.871094 C 84.363281 130.988281 83.898438 131.109375 83.886719 131.140625 C 83.828125 131.183594 85.421875 138.707031 85.554688 139.109375 C 85.632812 139.332031 85.839844 139.332031 86.570312 139.121094 Z M 99.804688 135.214844 C 99.804688 135.15625 99.699219 134.871094 99.597656 134.585938 L 99.371094 134.066406 L 97.925781 134.585938 C 97.132812 134.871094 96.433594 135.109375 96.375 135.109375 C 96.269531 135.109375 95.433594 133.019531 95.507812 132.945312 C 95.539062 132.929688 96.167969 132.691406 96.910156 132.425781 L 98.285156 131.945312 L 98.121094 131.421875 C 98.03125 131.140625 97.882812 130.871094 97.789062 130.84375 C 97.703125 130.796875 97.0625 130.976562 96.359375 131.214844 C 95.671875 131.46875 95.058594 131.617188 95.015625 131.558594 C 94.957031 131.5 94.777344 131.066406 94.613281 130.601562 L 94.300781 129.753906 L 95.078125 129.46875 C 95.507812 129.320312 96.195312 129.066406 96.613281 128.914062 L 97.390625 128.648438 L 97.164062 128.007812 L 96.957031 127.363281 L 95.507812 127.902344 C 94.71875 128.1875 93.671875 128.558594 93.210938 128.722656 C 92.734375 128.886719 92.347656 129.082031 92.347656 129.171875 C 92.347656 129.289062 94.402344 135.050781 95 136.613281 L 95.164062 137.019531 L 97.480469 136.167969 C 98.761719 135.707031 99.804688 135.273438 99.804688 135.214844 Z M 55.117188 133.0625 C 55.835938 131.109375 56.355469 129.886719 56.476562 129.886719 C 56.59375 129.886719 57.117188 130.050781 57.640625 130.246094 L 58.609375 130.617188 L 58.820312 129.976562 L 59.042969 129.335938 L 56.101562 128.277344 C 54.492188 127.679688 53.105469 127.199219 53.03125 127.199219 C 52.894531 127.199219 52.507812 128.007812 52.507812 128.277344 C 52.507812 128.320312 53 128.542969 53.609375 128.769531 L 54.730469 129.171875 L 54.148438 130.765625 C 53.832031 131.632812 53.3125 133.09375 52.96875 134.003906 C 52.625 134.914062 52.355469 135.734375 52.355469 135.8125 C 52.355469 135.988281 53.730469 136.449219 53.863281 136.316406 C 53.925781 136.273438 54.492188 134.796875 55.117188 133.0625 Z M 48.613281 133.648438 L 48.894531 133.09375 L 47.492188 132.363281 C 46.71875 131.960938 46.089844 131.574219 46.089844 131.511719 C 46.089844 131.4375 46.300781 130.945312 46.566406 130.421875 L 47.046875 129.46875 L 48.371094 130.125 C 49.105469 130.496094 49.714844 130.78125 49.746094 130.753906 C 49.820312 130.648438 50.269531 129.753906 50.269531 129.675781 C 50.269531 129.632812 49.714844 129.320312 49.046875 128.976562 C 48.359375 128.632812 47.777344 128.335938 47.746094 128.304688 C 47.671875 128.246094 48.492188 126.453125 48.582031 126.453125 C 48.613281 126.453125 49.238281 126.753906 49.972656 127.128906 C 50.703125 127.5 51.371094 127.796875 51.460938 127.796875 C 51.625 127.796875 52.164062 126.796875 52.046875 126.695312 C 51.910156 126.574219 47.703125 124.5 47.65625 124.542969 C 47.640625 124.574219 46.777344 126.246094 45.734375 128.277344 L 43.851562 131.960938 L 45.96875 133.082031 C 47.148438 133.707031 48.148438 134.210938 48.207031 134.210938 C 48.269531 134.210938 48.449219 133.960938 48.613281 133.648438 Z M 104.074219 133.453125 C 105.746094 132.648438 106.476562 131.453125 106.074219 130.140625 C 105.683594 128.828125 104.6875 128.335938 102.671875 128.5 C 101.238281 128.605469 100.851562 128.410156 100.851562 127.558594 C 100.851562 126.933594 101.464844 126.394531 102.492188 126.15625 C 103.296875 125.960938 103.296875 125.992188 102.921875 125.007812 C 102.804688 124.679688 102.789062 124.679688 102.015625 124.902344 C 99.476562 125.648438 98.449219 127.378906 99.507812 129.109375 C 100.046875 129.992188 100.566406 130.1875 102.371094 130.1875 C 103.609375 130.1875 104.011719 130.230469 104.195312 130.421875 C 104.566406 130.78125 104.492188 131.480469 104.03125 131.914062 C 103.65625 132.261719 102.429688 132.722656 101.878906 132.722656 C 101.628906 132.722656 101.628906 132.753906 101.863281 133.410156 C 102.101562 134.066406 102.132812 134.078125 102.640625 133.988281 C 102.921875 133.945312 103.582031 133.707031 104.074219 133.453125 Z M 43.628906 127.246094 C 44.925781 125.457031 45.988281 123.917969 46 123.828125 C 46.015625 123.722656 45.554688 123.320312 44.984375 122.902344 L 43.972656 122.160156 L 42.824219 122.992188 C 42.195312 123.453125 41.03125 124.320312 40.226562 124.933594 C 39.421875 125.546875 38.734375 126.007812 38.691406 125.976562 C 38.660156 125.933594 39.09375 124.53125 39.660156 122.84375 L 40.691406 119.769531 L 39.71875 119.070312 C 39.183594 118.695312 38.675781 118.351562 38.570312 118.320312 C 38.453125 118.277344 34.289062 123.859375 33.675781 124.890625 C 33.601562 125.007812 33.8125 125.246094 34.214844 125.527344 L 34.855469 125.992188 L 36.78125 123.320312 C 37.839844 121.859375 38.734375 120.679688 38.765625 120.710938 C 38.808594 120.769531 36.882812 126.976562 36.75 127.230469 C 36.691406 127.320312 37.855469 128.246094 38.019531 128.246094 C 38.078125 128.246094 39.347656 127.335938 40.855469 126.230469 C 42.375 125.125 43.644531 124.246094 43.671875 124.277344 C 43.703125 124.304688 42.882812 125.5 41.851562 126.933594 C 40.824219 128.363281 39.972656 129.589844 39.972656 129.632812 C 39.972656 129.738281 41.03125 130.484375 41.183594 130.484375 C 41.242188 130.484375 42.332031 129.019531 43.628906 127.246094 Z M 111.324219 129.125 L 113.371094 127.765625 L 113.042969 127.261719 C 112.859375 126.976562 112.652344 126.753906 112.59375 126.753906 C 112.53125 126.753906 111.894531 127.15625 111.175781 127.632812 L 109.863281 128.515625 L 109.28125 127.601562 C 108.953125 127.109375 108.667969 126.664062 108.640625 126.605469 C 108.625 126.542969 109.132812 126.140625 109.800781 125.710938 C 110.457031 125.277344 110.996094 124.871094 110.996094 124.828125 C 110.996094 124.769531 110.847656 124.515625 110.652344 124.246094 L 110.3125 123.78125 L 109.070312 124.605469 C 108.386719 125.066406 107.820312 125.410156 107.804688 125.382812 C 107.714844 125.261719 106.863281 123.976562 106.773438 123.828125 C 106.683594 123.679688 107.3125 123.21875 109.25 121.964844 C 109.371094 121.875 109.234375 121.589844 108.667969 120.816406 C 108.59375 120.710938 104.566406 123.5 104.609375 123.605469 C 104.699219 123.84375 109.132812 130.484375 109.207031 130.484375 C 109.234375 130.484375 110.191406 129.871094 111.324219 129.125 Z M 79.660156 126.15625 C 98.878906 124.441406 115.503906 112.234375 122.796875 94.496094 C 123.367188 93.089844 124.871094 88.75 124.871094 88.480469 C 124.871094 88.40625 123.949219 88.109375 123.679688 88.109375 C 123.5 88.109375 123.308594 88.496094 122.949219 89.71875 C 118.578125 104.238281 107.175781 116.308594 92.761719 121.664062 C 89.210938 122.992188 86.242188 123.753906 82.125 124.398438 C 79.648438 124.785156 73.378906 124.933594 70.605469 124.679688 C 58.714844 123.589844 48.03125 118.605469 39.734375 110.265625 C 34.050781 104.535156 29.75 97.449219 27.347656 89.824219 C 27.039062 88.839844 26.78125 88.019531 26.753906 87.988281 C 26.738281 87.957031 26.425781 88.019531 26.035156 88.121094 C 25.425781 88.273438 25.351562 88.332031 25.4375 88.613281 C 27.675781 96.0625 30.542969 101.609375 35.09375 107.28125 C 42.71875 116.800781 53.582031 123.289062 65.5625 125.484375 C 66.636719 125.679688 68.246094 125.902344 69.144531 125.992188 C 70.054688 126.082031 70.996094 126.183594 71.234375 126.214844 C 72.292969 126.335938 78.097656 126.289062 79.660156 126.15625 Z M 32.722656 121.546875 C 33.15625 120.5 33.40625 119.679688 33.378906 119.441406 L 33.320312 119.054688 L 33.886719 119.246094 C 35.210938 119.695312 36.542969 118.695312 36.542969 117.234375 C 36.542969 116.488281 36.003906 115.667969 34.527344 114.21875 L 33.40625 113.101562 L 30.425781 116.082031 L 27.441406 119.070312 L 28.632812 120.261719 L 31.125 117.769531 L 31.515625 118.25 C 31.738281 118.503906 31.914062 118.800781 31.914062 118.90625 C 31.914062 119.023438 31.601562 119.800781 31.230469 120.636719 L 30.558594 122.171875 L 31.183594 122.816406 C 31.542969 123.171875 31.871094 123.425781 31.929688 123.351562 C 31.976562 123.289062 32.335938 122.488281 32.722656 121.546875 Z M 119.382812 120.292969 C 118.710938 119.621094 118.15625 118.996094 118.15625 118.917969 C 118.15625 118.84375 118.589844 118.339844 119.128906 117.800781 L 120.097656 116.816406 L 119.652344 116.382812 L 119.203125 115.949219 L 118.15625 116.980469 C 117.589844 117.546875 117.097656 117.980469 117.085938 117.933594 C 117.054688 117.90625 116.742188 117.546875 116.367188 117.160156 L 115.710938 116.457031 L 116.742188 115.414062 L 117.785156 114.367188 L 117.292969 113.890625 L 116.816406 113.398438 L 113.488281 116.726562 L 116.441406 119.726562 L 119.410156 122.738281 L 120.007812 122.128906 L 120.621094 121.53125 Z M 81.304688 119.980469 C 86.722656 119.160156 91.152344 117.757812 95.761719 115.414062 C 104.6875 110.863281 111.636719 103.773438 116.011719 94.75 C 118.484375 89.644531 119.828125 84.855469 120.414062 79.097656 C 120.664062 76.53125 120.5 70.84375 120.113281 68.265625 C 118.875 60.238281 115.652344 52.867188 110.578125 46.480469 C 109.058594 44.570312 105.460938 40.988281 103.535156 39.464844 C 88.972656 27.933594 69.097656 26.289062 53 35.304688 C 47.253906 38.511719 41.972656 43.238281 38.199219 48.535156 C 30.691406 59.070312 28.023438 72.203125 30.828125 84.824219 C 33.734375 98 42.480469 109.28125 54.566406 115.425781 C 59.535156 117.949219 64.546875 119.457031 70.261719 120.128906 C 72.558594 120.382812 79.140625 120.308594 81.304688 119.980469 Z M 125.289062 116.070312 C 126.679688 115.382812 127.691406 113.773438 127.707031 112.28125 C 127.707031 111.144531 127.214844 110.148438 126.171875 109.191406 C 124.203125 107.398438 121.800781 107.371094 120.21875 109.117188 C 118.457031 111.070312 118.484375 113.21875 120.335938 114.964844 C 121.933594 116.472656 123.695312 116.863281 125.289062 116.070312 Z M 27.039062 115.726562 C 27.453125 115.5625 32.214844 112.027344 32.214844 111.875 C 32.214844 111.683594 31.421875 110.640625 31.289062 110.640625 C 31.214844 110.640625 30.214844 111.339844 29.082031 112.203125 C 26.8125 113.9375 26.140625 114.296875 25.425781 114.160156 C 24.515625 113.980469 23.875 112.90625 24.15625 112.039062 C 24.351562 111.445312 24.875 110.980469 27.320312 109.164062 L 29.199219 107.757812 L 28.738281 107.117188 C 28.46875 106.761719 28.167969 106.503906 28.082031 106.535156 C 27.976562 106.566406 26.828125 107.398438 25.542969 108.371094 C 22.933594 110.339844 22.515625 110.847656 22.515625 112.039062 C 22.515625 113.207031 23.632812 114.980469 24.722656 115.5625 C 25.320312 115.859375 26.441406 115.949219 27.039062 115.726562 Z M 130.660156 107.863281 C 132.570312 106.90625 133.585938 104.132812 132.675781 102.359375 C 131.8125 100.671875 129.363281 99.417969 127.601562 99.730469 C 125.1875 100.179688 123.484375 103.386719 124.542969 105.488281 C 125.125 106.640625 125.875 107.265625 127.363281 107.890625 C 128.558594 108.371094 129.648438 108.371094 130.660156 107.863281 Z M 23.484375 107.503906 C 24.425781 107.042969 25.425781 106.132812 25.84375 105.34375 C 26.304688 104.460938 26.289062 103.058594 25.785156 101.984375 C 25.246094 100.835938 24.722656 100.269531 23.769531 99.804688 C 23.066406 99.460938 22.828125 99.417969 21.949219 99.476562 C 20.160156 99.613281 18.203125 100.925781 17.652344 102.371094 C 17.324219 103.238281 17.410156 104.667969 17.859375 105.582031 C 18.292969 106.460938 19.113281 107.3125 19.890625 107.683594 C 20.769531 108.085938 22.472656 107.996094 23.484375 107.503906 Z M 135.390625 99.640625 C 136.332031 97.316406 136.675781 95.40625 136.363281 94.226562 C 135.957031 92.734375 134.019531 91.507812 132.035156 91.480469 C 129.976562 91.464844 128.828125 92.675781 127.707031 96.0625 C 127.527344 96.628906 127.410156 97.105469 127.4375 97.132812 C 127.515625 97.210938 135.035156 99.882812 135.183594 99.882812 C 135.242188 99.894531 135.332031 99.777344 135.390625 99.640625 Z M 19.5625 98.328125 C 19.785156 98.238281 19.753906 98.074219 19.261719 96.71875 C 18.980469 95.882812 18.710938 95.164062 18.683594 95.136719 C 18.636719 95.078125 17.441406 95.40625 17.441406 95.480469 C 17.441406 95.507812 17.574219 95.898438 17.726562 96.34375 L 18.007812 97.179688 L 16.964844 97.507812 C 15.769531 97.882812 15.789062 97.894531 15.429688 96.671875 C 15.007812 95.269531 15.636719 93.957031 17.070312 93.316406 C 17.816406 92.972656 19.097656 92.957031 19.785156 93.269531 C 20.726562 93.734375 21.425781 95 21.5 96.464844 C 21.53125 96.882812 21.621094 97.210938 21.695312 97.210938 C 21.949219 97.210938 22.964844 96.894531 22.964844 96.824219 C 22.964844 96.777344 22.859375 96.238281 22.726562 95.613281 C 22.007812 92.136719 19.8125 90.601562 16.890625 91.507812 C 15.308594 92 14.144531 93.105469 13.921875 94.328125 C 13.667969 95.65625 14.144531 97.613281 15.054688 99.042969 L 15.488281 99.730469 L 17.398438 99.074219 C 18.441406 98.714844 19.425781 98.386719 19.5625 98.328125 Z M 133.226562 82.648438 L 134.109375 82.109375 L 133.554688 81.230469 C 133.257812 80.75 132.945312 80.347656 132.886719 80.347656 C 132.675781 80.347656 131.152344 81.304688 131.140625 81.4375 C 131.140625 81.601562 132.15625 83.183594 132.273438 83.183594 C 132.320312 83.183594 132.753906 82.945312 133.226562 82.648438 Z M 18.769531 82.15625 C 19.097656 81.664062 19.382812 81.242188 19.382812 81.199219 C 19.382812 81.109375 17.769531 80.050781 17.621094 80.050781 C 17.546875 80.050781 17.234375 80.441406 16.917969 80.902344 L 16.351562 81.753906 L 16.710938 81.976562 C 16.890625 82.109375 17.292969 82.390625 17.574219 82.617188 C 17.875 82.839844 18.113281 83.019531 18.128906 83.019531 C 18.144531 83.035156 18.425781 82.632812 18.769531 82.15625 Z M 131.378906 73.46875 C 132.261719 73.140625 133.226562 72.203125 133.601562 71.292969 C 133.738281 70.976562 133.976562 70.15625 134.152344 69.457031 C 134.632812 67.457031 134.929688 67.070312 135.957031 67.070312 C 136.554688 67.070312 136.898438 67.398438 137.199219 68.21875 C 137.464844 68.964844 137.464844 70.574219 137.199219 71.46875 L 136.972656 72.1875 L 138.554688 72.097656 C 139.570312 72.039062 140.183594 71.933594 140.257812 71.816406 C 140.316406 71.726562 140.421875 71.160156 140.464844 70.5625 C 140.75 67.578125 139.660156 64.875 137.78125 63.890625 C 136.914062 63.441406 135.035156 63.371094 133.871094 63.726562 C 132.183594 64.25 131.410156 65.308594 130.691406 68.054688 C 130.304688 69.53125 129.828125 70.175781 129.019531 70.308594 C 128.335938 70.410156 127.828125 70.113281 127.46875 69.414062 C 127.097656 68.710938 127.128906 66.652344 127.515625 65.535156 L 127.8125 64.667969 L 126.082031 64.710938 L 124.367188 64.757812 L 124.246094 65.277344 C 124.039062 66.21875 124.097656 69.023438 124.351562 69.949219 C 124.933594 72.15625 126.097656 73.410156 127.902344 73.785156 C 128.78125 73.964844 130.453125 73.8125 131.378906 73.46875 Z M 26.082031 71.246094 C 26.171875 70.546875 26.246094 69.800781 26.246094 69.589844 L 26.246094 69.203125 L 23.546875 68.859375 C 20.992188 68.515625 20.859375 68.488281 20.933594 68.1875 C 21.351562 66.429688 21.097656 64.445312 20.277344 63.265625 C 18.917969 61.28125 15.039062 60.625 12.964844 62.027344 C 12.308594 62.476562 11.59375 63.546875 11.28125 64.5625 C 10.964844 65.546875 10.25 70.398438 10.398438 70.515625 C 10.460938 70.5625 12.890625 70.917969 15.800781 71.304688 C 18.710938 71.710938 22.144531 72.171875 23.410156 72.351562 C 24.679688 72.53125 25.769531 72.648438 25.8125 72.605469 C 25.859375 72.558594 25.976562 71.949219 26.082031 71.246094 Z M 27.335938 62.382812 C 27.632812 61.578125 27.859375 60.875 27.8125 60.816406 C 27.78125 60.757812 27.183594 60.265625 26.484375 59.746094 C 25.785156 59.222656 25.203125 58.714844 25.203125 58.625 C 25.203125 58.535156 25.558594 57.488281 26.007812 56.3125 L 26.8125 54.164062 L 28.066406 54.238281 C 28.738281 54.265625 29.542969 54.296875 29.828125 54.3125 L 30.347656 54.3125 L 30.992188 52.609375 C 31.332031 51.671875 31.601562 50.878906 31.574219 50.851562 C 31.496094 50.792969 17.054688 50.058594 15.875 50.058594 L 15.128906 50.058594 L 14.414062 52.015625 C 14.011719 53.089844 13.742188 54.027344 13.816406 54.089844 C 14.59375 54.835938 26.617188 64.054688 26.691406 63.980469 C 26.753906 63.90625 27.039062 63.203125 27.335938 62.382812 Z M 127.960938 61.429688 C 129.484375 60.953125 130.527344 60.101562 131.007812 58.9375 C 131.109375 58.683594 131.230469 57.578125 131.289062 56.460938 C 131.4375 53.820312 131.664062 53.339844 132.8125 53.339844 C 133.78125 53.339844 134.722656 55.074219 134.765625 56.953125 C 134.78125 57.535156 134.855469 57.96875 134.945312 57.96875 C 135.078125 57.96875 136.75 57.535156 137.601562 57.28125 C 137.945312 57.179688 137.945312 56.253906 137.570312 54.804688 C 137.019531 52.671875 135.957031 51.042969 134.585938 50.238281 C 133.988281 49.878906 133.738281 49.835938 132.632812 49.835938 C 131.558594 49.835938 131.230469 49.894531 130.46875 50.253906 C 129.183594 50.867188 128.679688 51.296875 128.230469 52.210938 C 127.886719 52.910156 127.8125 53.3125 127.707031 55.042969 C 127.632812 56.148438 127.515625 57.179688 127.4375 57.324219 C 127.171875 57.835938 126.695312 58.144531 126.082031 58.222656 C 125.546875 58.296875 125.425781 58.25 125.023438 57.816406 C 124.351562 57.101562 123.933594 55.566406 123.992188 54.101562 C 124.050781 53 124.039062 52.9375 123.753906 53.011719 C 122.722656 53.253906 120.800781 53.789062 120.742188 53.851562 C 120.605469 53.984375 121.039062 56.460938 121.382812 57.519531 C 122.113281 59.683594 123.113281 60.90625 124.648438 61.503906 C 125.335938 61.773438 126.976562 61.726562 127.960938 61.429688 Z M 120.84375 51.386719 C 121.589844 50.910156 121.996094 50.566406 121.933594 50.464844 C 121.875 50.359375 121.171875 49.253906 120.367188 48 C 119.5625 46.730469 118.933594 45.660156 118.980469 45.597656 C 119.128906 45.34375 121.738281 43.777344 121.875 43.851562 C 121.949219 43.898438 122.621094 44.910156 123.382812 46.089844 L 124.738281 48.253906 L 125.589844 47.714844 C 126.050781 47.417969 126.617188 47.046875 126.84375 46.894531 L 127.246094 46.613281 L 125.902344 44.539062 C 125.171875 43.402344 124.53125 42.359375 124.484375 42.253906 C 124.441406 42.109375 124.753906 41.824219 125.425781 41.40625 C 125.976562 41.046875 126.589844 40.671875 126.753906 40.554688 C 127.066406 40.363281 127.140625 40.4375 128.605469 42.734375 C 130.332031 45.433594 130.003906 45.269531 131.648438 44.210938 C 132.140625 43.898438 132.558594 43.566406 132.558594 43.507812 C 132.558594 43.332031 127.796875 35.898438 127.679688 35.886719 C 127.601562 35.886719 114.652344 44.136719 114.488281 44.300781 C 114.472656 44.300781 115.191406 45.464844 116.101562 46.851562 C 116.996094 48.253906 118.128906 50.015625 118.621094 50.773438 C 119.097656 51.523438 119.53125 52.148438 119.574219 52.148438 C 119.605469 52.148438 120.171875 51.804688 120.84375 51.386719 Z M 33.496094 48.359375 C 34.246094 47.359375 34.332031 47.164062 34.140625 47.015625 C 34.019531 46.925781 32.152344 45.539062 30.007812 43.941406 C 27.859375 42.359375 26.097656 41 26.097656 40.941406 C 26.097656 40.882812 28.558594 41.464844 31.585938 42.242188 C 35.886719 43.332031 37.09375 43.597656 37.210938 43.449219 C 38.136719 42.285156 39.6875 40.179688 39.644531 40.152344 C 39.628906 40.121094 36.882812 38.035156 33.558594 35.511719 C 30.230469 32.992188 27.441406 30.871094 27.347656 30.796875 C 27.230469 30.707031 26.902344 31.035156 26.335938 31.78125 C 25.871094 32.410156 25.457031 32.992188 25.410156 33.09375 C 25.378906 33.199219 27.039062 34.527344 29.441406 36.332031 C 33.125 39.078125 34.035156 39.824219 33.332031 39.554688 C 32.902344 39.390625 22.933594 36.78125 22.726562 36.78125 C 22.53125 36.78125 19.875 40.167969 19.996094 40.273438 C 20.5 40.777344 32.46875 49.714844 32.527344 49.644531 C 32.574219 49.582031 33.003906 49.015625 33.496094 48.359375 Z M 115.308594 39.777344 C 116.59375 37.210938 116.863281 36.527344 116.863281 35.972656 C 116.863281 35.347656 116.890625 35.316406 117.171875 35.46875 C 117.683594 35.75 118.964844 35.660156 119.710938 35.304688 C 120.578125 34.871094 121.621094 33.871094 122.054688 33.035156 C 122.304688 32.542969 122.394531 32.125 122.394531 31.410156 C 122.410156 29.902344 121.996094 29.289062 119.007812 26.46875 L 116.488281 24.050781 L 115.996094 24.558594 C 115.726562 24.84375 113.28125 27.410156 110.578125 30.261719 L 105.652344 35.46875 L 106.847656 36.601562 C 107.503906 37.242188 108.085938 37.765625 108.148438 37.777344 C 108.191406 37.796875 109.175781 36.8125 110.324219 35.585938 L 112.414062 33.347656 L 112.980469 33.945312 C 113.890625 34.902344 113.757812 35.527344 111.980469 38.792969 L 111.011719 40.585938 L 112.308594 41.792969 C 113.023438 42.464844 113.636719 42.988281 113.683594 42.972656 C 113.726562 42.941406 114.460938 41.511719 115.308594 39.777344 Z M 44.675781 36.109375 C 47.613281 33.945312 48.730469 32.335938 48.882812 30.097656 C 48.957031 29.113281 48.894531 28.765625 48.566406 27.753906 C 47.734375 25.292969 45.523438 22.515625 43.597656 21.546875 C 41.78125 20.621094 39.480469 20.816406 37.421875 22.050781 C 36.484375 22.621094 32.363281 25.589844 32.363281 25.695312 C 32.363281 25.738281 34.421875 28.617188 36.945312 32.078125 L 41.523438 38.40625 L 42.285156 37.855469 C 42.6875 37.554688 43.777344 36.765625 44.675781 36.109375 Z M 100.714844 29.246094 C 101.464844 27.960938 102.121094 26.933594 102.179688 26.960938 C 102.222656 26.992188 102.851562 27.304688 103.550781 27.664062 C 105.132812 28.453125 106.328125 28.617188 107.550781 28.199219 C 108.625 27.839844 109.773438 26.753906 110.476562 25.410156 C 110.96875 24.5 111.054688 24.144531 111.117188 23.171875 C 111.175781 22.144531 111.144531 21.917969 110.785156 21.203125 C 110.234375 20.070312 109.175781 19.175781 106.597656 17.636719 C 104.804688 16.578125 104.339844 16.351562 104.207031 16.515625 C 103.847656 16.90625 96.359375 29.796875 96.449219 29.886719 C 96.582031 30.019531 99.121094 31.527344 99.238281 31.542969 C 99.296875 31.558594 99.957031 30.511719 100.714844 29.246094 Z M 54.65625 29.84375 C 54.910156 29.738281 54.921875 29.585938 54.820312 27.976562 L 54.714844 26.230469 L 56.996094 25.394531 C 58.25 24.917969 59.324219 24.589844 59.386719 24.648438 C 59.445312 24.722656 59.921875 25.351562 60.445312 26.050781 L 61.386719 27.347656 L 63.101562 26.710938 C 64.117188 26.335938 64.800781 26.007812 64.773438 25.886719 C 64.742188 25.753906 55.371094 13.667969 54.894531 13.160156 C 54.835938 13.085938 53.894531 13.355469 52.820312 13.742188 L 50.867188 14.457031 L 50.867188 15.367188 C 50.867188 15.859375 51.03125 19.515625 51.238281 23.5 C 51.449219 27.484375 51.613281 30.78125 51.613281 30.839844 C 51.613281 30.929688 53.371094 30.347656 54.65625 29.84375 Z M 94.375 24.648438 C 93.910156 22.308594 93.539062 20.304688 93.539062 20.1875 C 93.539062 20.054688 94.777344 18.621094 96.300781 16.996094 C 97.820312 15.355469 99.0625 13.980469 99.0625 13.9375 C 99.0625 13.800781 95.644531 12.875 95.480469 12.980469 C 95.40625 13.027344 94.585938 13.980469 93.660156 15.113281 C 92.359375 16.667969 91.957031 17.082031 91.914062 16.859375 C 91.882812 16.695312 91.71875 15.457031 91.539062 14.101562 L 91.226562 11.640625 L 89.363281 11.101562 C 88.332031 10.820312 87.464844 10.625 87.453125 10.699219 C 87.421875 10.757812 87.75 12.605469 88.167969 14.785156 L 88.941406 18.753906 L 88.285156 19.457031 C 87.707031 20.070312 84.199219 23.84375 83.050781 25.082031 L 82.632812 25.542969 L 84.542969 26.082031 C 85.585938 26.382812 86.464844 26.574219 86.527344 26.5 C 86.570312 26.441406 87.4375 25.351562 88.449219 24.113281 C 89.925781 22.308594 90.332031 21.886719 90.421875 22.113281 C 90.464844 22.261719 90.660156 23.589844 90.851562 25.066406 C 91.035156 26.546875 91.257812 27.8125 91.316406 27.902344 C 91.507812 28.097656 95.089844 29.125 95.152344 28.992188 C 95.179688 28.929688 94.824219 26.976562 94.375 24.648438 Z M 81.453125 24.097656 L 81.453125 22.605469 L 80.363281 22.605469 C 79.753906 22.605469 78.4375 22.5625 77.441406 22.5 L 75.617188 22.410156 L 75.664062 20.679688 L 75.707031 18.949219 L 78.4375 19.011719 L 81.15625 19.070312 L 81.15625 16.039062 L 79.378906 16.039062 C 78.410156 16.039062 77.199219 15.996094 76.695312 15.953125 L 75.78125 15.847656 L 75.78125 12.742188 L 78.664062 12.773438 L 81.527344 12.789062 L 81.617188 9.953125 L 80.828125 9.863281 C 80.394531 9.816406 78.347656 9.742188 76.273438 9.699219 L 72.53125 9.625 L 72.441406 10.996094 C 72.292969 13.457031 72.039062 25.171875 72.125 25.273438 C 72.21875 25.351562 75.5 25.46875 80.007812 25.558594 L 81.453125 25.589844 Z M 81.453125 24.097656 "/>
<path style=" stroke:none;fill-rule:nonzero;fill:rgb(100%,100%,100%);fill-opacity:1;" d="M 32.675781 117.398438 L 32.050781 116.832031 L 32.855469 116.039062 L 33.660156 115.234375 L 34.199219 115.800781 C 34.882812 116.53125 35.003906 116.996094 34.632812 117.488281 C 34.167969 118.128906 33.453125 118.085938 32.675781 117.398438 Z M 67.609375 89.972656 C 65.863281 89.585938 65.042969 89.300781 63.429688 88.46875 C 61.578125 87.523438 60.085938 86.316406 57.042969 83.273438 C 51.296875 77.5 49.046875 72.382812 49.285156 65.652344 C 49.449219 61.039062 50.539062 57.90625 53.296875 54.207031 C 55.085938 51.804688 56.386719 50.402344 58.027344 49.058594 C 62.355469 45.570312 66.59375 43.972656 72.648438 43.554688 C 74.292969 43.449219 76.886719 43.671875 78.902344 44.105469 C 80.273438 44.40625 82.75 45.210938 82.988281 45.417969 C 83.050781 45.476562 82.914062 45.761719 82.707031 46.046875 C 82.035156 46.925781 81.453125 48.300781 81.453125 48.984375 C 81.453125 51.851562 85.738281 56.59375 89.464844 57.835938 C 90.75 58.25 92.269531 58.191406 92.941406 57.683594 C 93.195312 57.507812 93.496094 57.386719 93.601562 57.414062 C 93.988281 57.566406 95.539062 63.472656 95.71875 65.503906 C 95.910156 67.695312 95.253906 70.621094 93.929688 73.410156 C 91.75 77.992188 88.941406 80.945312 83.003906 84.945312 C 81.484375 85.960938 78.542969 87.421875 75.484375 88.675781 C 73.890625 89.332031 72.308594 89.945312 71.980469 90.03125 C 71.171875 90.257812 68.757812 90.210938 67.609375 89.972656 Z M 68.921875 87.050781 C 69.007812 86.886719 69.039062 86.558594 68.996094 86.316406 C 68.832031 85.542969 69.066406 85.347656 70.21875 85.332031 C 71.5625 85.316406 72.113281 85.0625 72.171875 84.394531 C 72.203125 84.125 72.15625 83.828125 72.066406 83.734375 C 71.960938 83.632812 71.007812 83.570312 69.558594 83.558594 C 67.488281 83.542969 66.996094 83.5 65.535156 83.125 C 64.160156 82.765625 63.816406 82.722656 63.625 82.886719 C 63.027344 83.378906 63.683594 84.289062 64.875 84.601562 C 65.785156 84.839844 66.054688 85.050781 66.875 86.167969 C 67.203125 86.617188 67.578125 87.078125 67.695312 87.183594 C 68.070312 87.464844 68.738281 87.40625 68.921875 87.050781 Z M 79.992188 79.214844 C 80.945312 78.722656 82.246094 76.378906 82.601562 74.5 C 82.886719 72.933594 82.796875 71.949219 82.226562 70.726562 C 80.453125 66.964844 76.871094 64.546875 74.785156 65.726562 C 73.589844 66.382812 72.753906 68.203125 72.742188 70.128906 C 72.742188 71.53125 72.949219 72.097656 74.199219 73.976562 C 74.648438 74.648438 75.378906 75.976562 75.828125 76.917969 C 76.292969 77.855469 76.828125 78.796875 77.035156 78.992188 C 77.691406 79.601562 79.035156 79.707031 79.992188 79.214844 Z M 60.160156 77.84375 C 60.324219 77.707031 60.683594 77.125 60.96875 76.542969 C 61.25 75.976562 61.980469 74.738281 62.609375 73.800781 C 63.816406 71.992188 64.292969 70.949219 64.292969 70.15625 C 64.292969 69.488281 63.59375 66.996094 63.160156 66.144531 C 62.710938 65.265625 62.308594 64.980469 61.472656 64.980469 C 60.535156 64.980469 59.652344 65.457031 58.714844 66.5 C 57.238281 68.128906 56.3125 70.398438 56.132812 72.742188 C 56.027344 74.320312 56.265625 75.261719 57.132812 76.574219 C 58.132812 78.097656 59.324219 78.601562 60.160156 77.84375 Z M 60.160156 77.84375 "/>
<path style=" stroke:none;fill-rule:nonzero;fill:rgb(100%,100%,100%);fill-opacity:1;" d="M 77.023438 73.933594 C 76.542969 73.738281 76.1875 73.113281 76.292969 72.664062 C 76.53125 71.738281 77.589844 71.398438 78.246094 72.066406 C 78.828125 72.636719 78.648438 73.589844 77.917969 73.917969 C 77.5 74.113281 77.46875 74.113281 77.023438 73.933594 Z M 59.265625 73.304688 C 58.773438 73.070312 58.550781 72.394531 58.773438 71.859375 C 59.128906 70.964844 60.445312 70.917969 60.847656 71.785156 C 61.101562 72.351562 61.058594 72.574219 60.578125 73.050781 C 60.117188 73.5 59.804688 73.574219 59.265625 73.304688 Z M 105.371094 83.035156 C 105.101562 82.929688 105.042969 82.75 104.96875 81.8125 C 104.65625 77.617188 104.523438 76.292969 104.175781 74.304688 C 103.074219 67.621094 101.34375 63.535156 97.625 58.789062 C 97.121094 58.132812 96.332031 57.222656 95.867188 56.773438 C 95.40625 56.328125 95.03125 55.894531 95.03125 55.804688 C 95.03125 55.699219 95.300781 55.027344 95.613281 54.28125 C 95.941406 53.535156 96.285156 52.640625 96.390625 52.28125 C 96.496094 51.925781 96.628906 51.566406 96.6875 51.492188 C 96.925781 51.222656 101.804688 55.835938 104.386719 58.757812 C 106.953125 61.667969 108.324219 63.652344 110.148438 67.070312 C 111.652344 69.90625 112.890625 73.695312 113.25 76.601562 L 113.445312 78.082031 L 112.921875 79.097656 C 111.9375 81.066406 110.265625 82.421875 108.238281 82.960938 C 107.28125 83.199219 105.894531 83.242188 105.371094 83.035156 Z M 122.859375 114.605469 C 121.246094 113.875 120.203125 112.292969 120.546875 111.070312 C 120.753906 110.324219 121.5625 109.59375 122.304688 109.492188 C 123.933594 109.265625 126.007812 110.863281 126.171875 112.457031 C 126.335938 114.160156 124.515625 115.355469 122.859375 114.605469 Z M 128.1875 106.339844 C 126.617188 105.773438 125.5 104.429688 125.691406 103.328125 C 126.082031 101.207031 128.378906 100.761719 130.496094 102.371094 C 131.558594 103.179688 131.855469 104.625 131.183594 105.550781 C 130.4375 106.535156 129.46875 106.789062 128.1875 106.339844 Z M 20.082031 106.101562 C 19.503906 105.773438 19.113281 105.296875 18.917969 104.609375 C 18.519531 103.148438 20.054688 101.507812 22.1875 101.164062 C 23.066406 101.015625 23.992188 101.476562 24.441406 102.296875 C 25.140625 103.519531 24.574219 104.851562 22.992188 105.746094 C 22.039062 106.296875 20.726562 106.445312 20.082031 106.101562 Z M 132.78125 97.269531 C 132.003906 96.988281 130.871094 96.582031 130.289062 96.375 C 129.695312 96.167969 129.199219 95.925781 129.199219 95.835938 C 129.199219 95.464844 130.003906 94.046875 130.363281 93.792969 C 131.855469 92.734375 134.242188 93.390625 134.855469 95.015625 C 135.199219 95.925781 134.914062 97.820312 134.4375 97.789062 C 134.304688 97.789062 133.554688 97.554688 132.78125 97.269531 Z M 15.742188 67.800781 C 14.679688 67.636719 13.785156 67.488281 13.742188 67.457031 C 13.609375 67.308594 14.054688 65.710938 14.324219 65.371094 C 15.054688 64.445312 17.144531 64.609375 17.816406 65.636719 C 18.085938 66.039062 18.085938 67.996094 17.816406 68.039062 C 17.738281 68.070312 16.800781 67.949219 15.742188 67.800781 Z M 20.097656 55.085938 C 18.726562 54.101562 17.621094 53.253906 17.667969 53.222656 C 17.726562 53.164062 23.605469 53.789062 23.679688 53.863281 C 23.722656 53.910156 22.695312 56.804688 22.621094 56.863281 C 22.605469 56.878906 21.472656 56.070312 20.097656 55.085938 Z M 116.144531 32.601562 C 115.90625 32.453125 115.445312 32.09375 115.117188 31.8125 C 114.414062 31.199219 114.429688 31.15625 115.90625 29.691406 L 116.964844 28.664062 L 117.425781 29.09375 C 118.175781 29.796875 118.753906 30.675781 118.753906 31.09375 C 118.753906 31.945312 117.785156 32.902344 116.933594 32.902344 C 116.742188 32.902344 116.398438 32.765625 116.144531 32.601562 Z M 39.6875 29.960938 L 36.945312 26.15625 L 37.375 25.796875 C 37.613281 25.605469 38.210938 25.246094 38.691406 24.992188 C 39.765625 24.441406 40.898438 24.394531 41.898438 24.84375 C 42.777344 25.246094 44.121094 26.679688 44.71875 27.828125 C 45.613281 29.605469 45.507812 31.066406 44.40625 32.257812 C 43.882812 32.828125 42.644531 33.8125 42.480469 33.78125 C 42.449219 33.78125 41.195312 32.066406 39.6875 29.960938 Z M 104.402344 24.753906 C 104 24.558594 103.683594 24.351562 103.683594 24.289062 C 103.683594 24.144531 105.625 20.828125 105.757812 20.738281 C 105.96875 20.621094 107.253906 21.53125 107.476562 21.992188 C 107.789062 22.589844 107.773438 23.097656 107.417969 23.785156 C 106.742188 25.128906 105.730469 25.457031 104.402344 24.753906 Z M 54.386719 22.398438 C 54.34375 21.976562 54.238281 20.769531 54.148438 19.695312 C 54.058594 18.636719 53.96875 17.5625 53.925781 17.308594 L 53.851562 16.859375 L 54.207031 17.292969 C 54.789062 17.996094 57.488281 22.007812 57.414062 22.050781 C 57.386719 22.082031 56.714844 22.335938 55.90625 22.636719 L 54.476562 23.15625 Z M 54.386719 22.398438 "/>
</g>
</svg>
